<svg id="svg" version="1.1" xmlns="http://www.w3.org/2000/svg" xmlns:xlink="http://www.w3.org/1999/xlink" width="400" height="265.0887573964497" viewBox="0, 0, 400,265.0887573964497"><g id="svgg"><path id="path0" d="M260.285 28.406 C 259.414 28.915,258.839 30.034,257.704 33.432 C 257.351 34.487,257.222 34.412,256.512 32.737 C 254.395 27.742,251.323 28.215,251.595 33.494 L 251.775 36.982 262.426 36.982 L 273.077 36.982 273.258 33.798 C 273.569 28.353,270.244 27.384,268.578 32.434 L 267.864 34.597 267.061 32.278 C 265.651 28.204,263.113 26.754,260.285 28.406 M282.027 32.674 C 280.759 34.294,280.477 34.427,280.145 33.562 C 279.095 30.825,277.113 33.510,277.817 36.717 C 278.032 37.695,277.985 38.456,277.713 38.408 C 276.382 38.174,275.740 38.566,275.740 39.611 C 275.740 40.771,277.777 42.604,279.066 42.604 C 280.163 42.604,286.114 38.385,285.927 37.740 C 285.746 37.114,285.337 33.489,285.256 31.805 C 285.179 30.179,283.659 30.589,282.027 32.674 M289.899 33.580 C 289.839 37.645,289.346 38.455,285.504 40.795 C 280.793 43.667,279.586 46.050,279.586 52.486 C 279.586 58.605,280.096 59.225,283.474 57.210 C 285.968 55.724,285.990 55.680,286.042 52.206 C 286.103 48.174,286.731 47.175,290.167 45.651 C 291.507 45.057,292.969 44.128,293.416 43.587 C 293.862 43.046,294.802 42.604,295.503 42.604 C 297.187 42.604,299.183 41.162,299.575 39.663 C 299.829 38.691,299.605 38.462,298.402 38.462 C 297.207 38.462,297.004 38.258,297.369 37.426 C 298.671 34.460,297.215 31.668,295.280 33.419 C 294.622 34.015,294.083 34.206,294.083 33.843 C 294.083 32.956,291.688 30.769,290.717 30.769 C 290.191 30.769,289.927 31.677,289.899 33.580 M250.690 38.264 C 249.641 39.314,250.681 39.645,255.030 39.645 C 258.843 39.645,259.763 39.818,259.763 40.533 C 259.763 41.147,259.146 41.420,257.756 41.420 C 256.517 41.420,255.617 41.760,255.407 42.308 C 255.220 42.796,254.558 43.195,253.937 43.195 C 253.316 43.195,252.476 42.796,252.071 42.308 C 250.166 40.012,248.521 41.200,248.521 44.872 C 248.521 48.640,248.163 49.452,246.948 48.443 C 246.460 48.038,246.154 46.530,246.154 44.528 L 246.154 41.272 244.231 41.650 C 238.382 42.799,239.890 51.448,245.943 51.470 C 247.570 51.476,248.509 51.778,248.735 52.367 C 249.293 53.821,255.882 53.586,257.410 52.057 C 258.343 51.125,258.473 50.611,258.002 49.729 C 257.168 48.171,257.244 47.337,258.221 47.337 C 260.108 47.337,260.329 51.967,258.519 53.605 C 257.510 54.518,256.059 54.787,250.839 55.028 C 243.680 55.359,241.845 56.306,241.093 60.059 L 240.738 61.834 243.836 61.834 C 247.529 61.834,248.401 62.993,245.144 63.570 C 241.043 64.298,240.828 64.447,240.828 66.560 L 240.828 68.544 242.923 67.965 C 245.536 67.244,249.240 67.519,249.548 68.457 C 249.688 68.883,248.885 69.314,247.523 69.543 C 242.365 70.410,241.289 70.994,241.715 72.694 C 242.241 74.789,241.956 74.732,246.377 73.622 C 249.524 72.831,250.472 72.782,251.184 73.373 C 252.310 74.308,252.323 75.148,251.213 75.148 C 249.819 75.148,244.739 76.330,243.905 76.848 C 242.713 77.588,244.230 80.476,245.805 80.466 C 249.082 80.445,258.415 77.984,262.299 76.116 C 272.978 70.979,276.438 61.358,272.330 48.219 C 271.384 45.192,271.331 44.400,271.973 42.894 C 272.388 41.921,272.740 40.392,272.754 39.497 L 272.781 37.870 261.933 37.870 C 255.966 37.870,250.907 38.047,250.690 38.264 M293.195 45.948 C 292.544 46.451,291.299 47.121,290.429 47.438 C 289.033 47.946,288.884 48.250,289.169 50.009 C 289.862 54.280,289.023 56.002,285.274 58.000 C 279.359 61.153,276.893 69.599,280.115 75.670 C 280.733 76.835,280.943 77.825,280.618 78.037 C 279.968 78.462,278.698 80.752,278.698 81.499 C 278.698 81.780,279.607 82.339,280.718 82.741 C 284.648 84.162,284.361 89.976,280.295 91.296 C 276.162 92.639,272.388 87.674,270.925 78.968 C 270.208 74.703,269.743 73.840,268.900 75.205 C 268.233 76.283,260.643 79.674,256.374 80.800 C 254.170 81.382,252.289 81.913,252.193 81.980 C 252.097 82.048,252.962 83.667,254.115 85.578 C 257.556 91.285,255.332 92.286,251.728 86.653 C 248.319 81.323,245.450 81.320,248.499 86.649 L 250.288 89.775 245.305 90.085 C 238.405 90.516,234.129 93.022,232.888 97.363 C 232.571 98.470,232.798 98.569,235.592 98.546 C 239.440 98.514,240.109 99.721,236.569 100.307 C 232.735 100.943,232.107 101.431,232.416 103.536 C 232.644 105.088,232.872 105.300,233.946 104.956 C 237.153 103.926,239.349 103.667,240.346 104.200 C 242.193 105.189,241.551 105.712,237.426 106.579 C 233.722 107.358,233.444 107.524,233.597 108.874 C 233.848 111.094,234.316 111.233,238.371 110.290 C 241.245 109.622,242.321 109.579,242.957 110.107 C 244.319 111.237,243.924 111.709,241.272 112.120 C 236.852 112.804,234.797 113.643,235.169 114.611 C 236.246 117.417,236.221 118.343,235.067 118.343 C 230.735 118.343,229.635 127.765,233.720 129.878 C 235.993 131.053,244.294 131.098,245.873 129.944 C 246.850 129.229,247.094 129.245,247.690 130.060 C 248.298 130.891,248.596 130.785,250.225 129.156 C 252.472 126.909,252.520 125.711,250.599 119.697 C 247.241 109.181,249.474 103.504,257.544 102.045 L 259.763 101.643 259.763 104.876 C 259.763 107.177,259.342 108.900,258.301 110.859 L 256.838 113.609 259.071 113.609 C 261.189 113.609,261.368 113.458,262.554 110.651 C 263.513 108.380,264.105 107.692,265.101 107.692 C 266.102 107.692,266.303 107.929,265.979 108.728 C 264.835 111.550,264.387 113.105,264.642 113.360 C 265.172 113.890,268.341 112.368,269.299 111.125 C 270.243 109.900,270.274 109.898,271.764 111.007 C 274.723 113.210,276.451 118.343,274.233 118.343 C 270.565 118.343,268.886 126.169,271.939 129.037 C 273.714 130.704,281.316 131.416,284.712 130.233 C 286.139 129.735,286.714 129.744,287.038 130.268 C 288.477 132.596,291.124 127.391,291.124 122.235 C 291.124 116.538,291.238 116.644,286.633 118.041 C 285.035 118.526,283.661 118.925,283.580 118.929 C 283.499 118.932,283.432 118.435,283.432 117.823 C 283.432 116.616,285.283 115.677,288.905 115.047 C 290.856 114.708,291.124 114.459,291.124 112.987 C 291.124 110.699,290.621 110.538,286.679 111.565 C 284.800 112.055,283.111 112.302,282.925 112.116 C 282.093 111.284,284.101 109.707,286.748 109.115 C 289.743 108.444,290.140 107.693,288.426 105.942 C 287.745 105.246,287.122 105.201,285.211 105.712 C 282.759 106.366,281.445 104.640,283.728 103.764 C 285.115 103.232,284.793 102.573,282.431 101.114 L 280.247 99.764 283.040 99.051 C 288.583 97.637,290.223 95.706,291.094 89.563 C 291.882 84.004,292.154 83.433,294.208 83.022 C 296.478 82.568,296.892 81.369,295.460 79.395 C 294.349 77.862,294.345 77.724,295.348 75.148 C 297.598 69.370,295.901 60.227,293.099 63.030 C 292.563 63.566,291.470 64.253,290.671 64.557 C 289.338 65.064,289.250 65.325,289.608 67.712 C 290.434 73.216,287.434 76.498,285.909 71.760 C 284.594 67.678,285.689 65.025,289.376 63.359 C 293.679 61.414,295.484 58.486,295.761 53.001 C 296.038 47.512,294.970 44.577,293.195 45.948 M256.509 50.296 C 256.509 50.917,255.653 51.282,253.661 51.511 C 250.711 51.849,249.947 51.466,250.533 49.939 C 251.014 48.685,256.509 49.013,256.509 50.296 M51.179 50.304 C 50.265 51.782,52.782 57.699,55.390 60.205 L 58.005 62.718 55.967 66.765 C 47.577 83.425,50.013 109.222,61.093 121.068 C 68.116 128.576,75.124 130.769,92.087 130.769 L 103.172 130.769 100.750 128.697 C 97.586 125.988,95.858 122.369,95.858 118.452 L 95.858 115.385 91.823 115.385 C 75.503 115.385,66.607 101.365,70.693 82.083 C 73.258 69.979,79.180 65.744,94.379 65.143 L 103.254 64.793 103.420 57.249 L 103.586 49.704 77.567 49.704 C 60.635 49.704,51.420 49.913,51.179 50.304 M107.692 57.396 L 107.692 65.089 121.078 65.089 C 134.225 65.089,134.449 65.109,133.652 66.241 C 133.206 66.874,130.159 71.201,126.881 75.856 C 123.604 80.511,116.581 90.444,111.275 97.929 C 97.599 117.224,96.556 121.087,103.533 126.613 C 108.918 130.879,107.720 130.742,139.941 130.751 L 168.935 130.758 165.976 129.044 C 161.932 126.702,158.491 123.119,156.255 118.924 L 154.381 115.408 141.974 115.248 L 129.567 115.089 152.369 82.544 C 169.303 58.373,174.919 49.947,174.194 49.794 C 173.658 49.680,173.054 49.839,172.852 50.147 C 167.142 58.856,152.010 79.597,151.041 80.046 C 150.214 80.428,149.271 80.457,148.538 80.122 C 147.465 79.633,148.221 78.367,157.165 65.680 C 168.620 49.431,168.457 49.694,167.033 49.733 C 166.353 49.751,163.877 52.823,160.082 58.355 C 153.710 67.645,153.381 68.016,152.606 66.792 C 151.383 64.862,152.185 62.779,156.509 56.644 C 161.274 49.884,161.368 49.704,160.128 49.704 C 159.678 49.704,157.638 52.034,155.596 54.882 C 150.499 61.987,149.771 62.722,147.826 62.722 C 145.481 62.722,145.660 62.164,150.000 55.939 C 154.112 50.041,154.277 49.704,153.050 49.704 C 152.612 49.704,148.818 54.620,144.618 60.628 C 136.836 71.762,135.820 72.772,135.139 70.056 C 134.581 67.836,135.892 65.596,145.396 52.515 L 147.438 49.704 127.565 49.704 L 107.692 49.704 107.692 57.396 M199.408 78.907 L 199.408 108.109 198.077 110.065 C 193.247 117.163,179.737 116.521,176.551 109.043 C 175.906 107.529,175.740 101.951,175.740 81.845 C 175.740 60.186,175.621 56.676,174.914 57.418 C 174.460 57.894,170.278 63.743,165.621 70.414 L 157.153 82.544 157.116 93.195 C 157.051 111.637,158.072 116.341,163.402 122.173 C 173.823 133.575,200.697 133.876,211.258 122.709 C 217.270 116.352,218.332 111.764,218.339 92.117 L 218.343 78.612 219.902 79.839 C 222.335 81.752,223.745 81.390,225.569 78.384 C 226.807 76.343,227.524 75.740,228.710 75.740 C 230.390 75.740,230.348 75.921,227.930 79.142 L 226.487 81.065 228.528 81.065 C 230.269 81.065,230.850 80.674,232.481 78.402 C 235.455 74.261,238.017 74.691,235.186 78.857 L 233.685 81.065 238.208 81.065 C 242.277 81.065,242.689 80.961,242.319 80.030 C 242.093 79.460,241.335 76.797,240.634 74.112 L 239.359 69.231 232.091 69.231 C 224.964 69.231,224.812 69.203,224.283 67.811 C 223.611 66.043,221.468 64.497,219.691 64.497 C 218.360 64.497,218.343 64.403,218.343 57.101 L 218.343 49.704 208.876 49.704 L 199.408 49.704 199.408 78.907 M223.195 50.414 C 222.199 51.410,222.310 53.057,223.373 53.057 C 223.953 53.057,224.260 52.476,224.260 51.381 C 224.260 49.489,224.187 49.422,223.195 50.414 M226.257 50.573 C 225.119 53.538,226.342 63.427,228.025 64.874 L 229.719 66.330 231.575 63.644 C 232.843 61.811,233.854 60.957,234.763 60.953 C 236.443 60.945,236.429 61.179,234.615 63.557 C 232.631 66.158,232.691 66.272,236.028 66.272 L 238.920 66.272 239.152 62.156 C 239.327 59.067,239.717 57.589,240.716 56.238 L 242.047 54.438 237.296 54.438 C 232.998 54.438,232.544 54.329,232.544 53.297 C 232.544 50.822,227.071 48.450,226.257 50.573 M222.880 55.424 C 222.135 56.168,222.485 57.988,223.373 57.988 C 223.925 57.988,224.260 57.429,224.260 56.509 C 224.260 55.072,223.684 54.620,222.880 55.424 M222.913 60.947 C 221.968 62.276,221.958 62.446,222.811 62.626 C 224.088 62.895,224.393 62.494,224.160 60.850 L 223.964 59.467 222.913 60.947 M150.038 67.156 C 151.044 72.514,145.264 80.177,140.543 79.747 C 133.959 79.146,140.817 65.089,147.694 65.089 C 149.461 65.089,149.688 65.289,150.038 67.156 M216.461 71.148 C 216.222 72.823,214.201 73.352,214.201 71.740 C 214.201 70.399,214.688 69.822,215.820 69.822 C 216.342 69.822,216.580 70.315,216.461 71.148 M133.170 74.112 C 137.420 78.592,133.888 92.311,129.493 88.395 C 126.172 85.437,126.065 81.148,129.180 75.888 C 131.269 72.359,131.436 72.285,133.170 74.112 M216.461 75.882 C 216.357 76.610,215.806 77.296,215.237 77.404 C 214.050 77.630,213.851 76.326,214.911 75.266 C 216.013 74.164,216.669 74.425,216.461 75.882 M146.657 83.490 C 148.915 84.277,148.915 84.275,146.924 86.926 C 142.701 92.550,137.373 94.375,133.483 91.531 C 132.518 90.825,132.614 90.550,134.787 87.801 C 138.360 83.282,142.131 81.912,146.657 83.490 M125.096 86.436 C 127.969 89.851,127.877 93.443,124.784 98.546 C 122.665 102.042,122.225 102.084,120.118 98.997 C 117.943 95.811,118.143 92.193,120.729 87.925 C 123.069 84.065,123.093 84.056,125.096 86.436 M138.520 95.592 L 140.295 96.510 138.542 98.894 C 135.054 103.637,130.991 105.485,126.970 104.157 C 124.006 103.179,123.975 102.834,126.554 99.572 C 130.181 94.983,134.539 93.534,138.520 95.592 M116.788 98.242 C 119.693 101.695,119.544 105.546,116.306 110.682 L 114.333 113.812 112.784 112.142 C 109.470 108.566,109.488 104.126,112.839 98.959 C 114.779 95.967,114.861 95.952,116.788 98.242 M130.226 107.421 L 131.990 108.334 130.054 111.030 C 126.581 115.867,121.669 117.706,117.703 115.655 C 115.755 114.648,115.782 114.523,118.696 110.890 C 121.984 106.791,126.424 105.455,130.226 107.421 M108.504 110.077 C 111.330 113.436,111.251 117.415,108.264 122.126 C 106.253 125.296,105.423 125.484,103.704 123.158 C 101.150 119.704,101.547 115.144,104.820 110.338 C 106.518 107.844,106.619 107.837,108.504 110.077 M121.662 119.219 L 123.759 120.096 121.796 122.828 C 118.401 127.555,114.032 129.313,109.556 127.753 C 107.226 126.941,107.233 126.807,109.790 123.458 C 113.304 118.856,117.342 117.414,121.662 119.219 M229.142 119.657 C 227.538 120.431,227.379 121.893,228.899 121.893 C 229.498 121.893,230.291 121.228,230.662 120.414 C 231.396 118.802,231.159 118.684,229.142 119.657 M268.179 119.856 C 267.456 120.363,266.864 121.028,266.864 121.335 C 266.864 122.368,269.183 121.905,269.802 120.749 C 270.917 118.664,270.337 118.345,268.179 119.856 M227.557 124.007 C 226.178 125.386,226.422 126.036,228.320 126.036 C 229.807 126.036,229.979 125.855,229.731 124.556 C 229.403 122.844,228.858 122.706,227.557 124.007 M266.716 123.716 C 265.161 124.622,265.432 126.036,267.160 126.036 C 268.343 126.036,268.639 125.740,268.639 124.556 C 268.639 122.946,268.296 122.796,266.716 123.716 M228.521 127.929 C 227.261 129.188,227.724 130.178,229.573 130.178 C 231.238 130.178,231.298 130.096,230.662 128.698 C 229.904 127.036,229.543 126.906,228.521 127.929 M267.574 127.929 C 266.315 129.188,266.777 130.178,268.626 130.178 C 270.292 130.178,270.352 130.096,269.715 128.698 C 268.957 127.036,268.597 126.906,267.574 127.929 M113.018 165.680 L 113.018 176.331 114.497 176.331 C 115.971 176.331,115.976 176.312,115.976 170.700 L 115.976 165.070 117.994 164.108 C 121.810 162.288,123.077 164.164,123.077 171.636 C 123.077 176.250,123.103 176.331,124.556 176.331 L 126.036 176.331 126.036 170.091 C 126.036 161.733,123.424 158.930,118.343 161.834 C 116.081 163.128,115.976 162.997,115.976 158.876 C 115.976 155.168,115.923 155.030,114.497 155.030 L 113.018 155.030 113.018 165.680 M55.633 156.658 C 48.571 160.206,48.718 173.066,55.855 176.048 C 60.747 178.092,66.864 175.142,66.864 170.739 C 66.864 168.760,63.615 169.650,62.529 171.927 C 61.201 174.713,57.432 174.751,55.385 171.998 C 53.604 169.604,53.607 162.934,55.389 160.546 C 57.319 157.961,61.473 158.097,62.722 160.786 C 63.708 162.908,66.864 163.663,66.864 161.778 C 66.864 157.347,60.256 154.335,55.633 156.658 M175.362 156.509 C 174.836 157.878,175.576 159.172,176.884 159.172 C 178.159 159.172,179.295 157.560,178.865 156.361 C 178.492 155.322,175.773 155.437,175.362 156.509 M238.100 156.467 C 237.511 158.003,238.336 159.272,239.790 159.065 C 240.768 158.926,241.124 158.481,241.124 157.396 C 241.124 155.650,238.699 154.905,238.100 156.467 M139.143 164.159 C 139.458 176.286,145.646 180.994,152.837 174.575 L 154.734 172.881 154.926 164.547 L 155.119 156.213 153.595 156.213 L 152.071 156.213 152.071 163.905 C 152.071 172.871,151.557 173.964,147.337 173.964 C 143.118 173.964,142.604 172.871,142.604 163.905 L 142.604 156.213 140.770 156.213 L 138.937 156.213 139.143 164.159 M246.154 159.467 C 246.154 161.144,245.928 161.538,244.970 161.538 C 244.313 161.538,243.787 161.933,243.787 162.426 C 243.787 162.919,244.313 163.314,244.970 163.314 C 246.067 163.314,246.154 163.708,246.154 168.666 C 246.154 175.708,247.843 177.802,252.515 176.550 C 254.517 176.013,254.137 174.659,251.923 174.446 L 250.000 174.260 249.830 168.787 L 249.660 163.314 251.457 163.314 C 252.660 163.314,253.254 163.020,253.254 162.426 C 253.254 161.834,252.663 161.538,251.479 161.538 C 249.845 161.538,249.704 161.374,249.704 159.467 C 249.704 157.561,249.563 157.396,247.929 157.396 C 246.295 157.396,246.154 157.561,246.154 159.467 M84.864 162.029 C 79.765 165.232,80.880 175.417,86.465 176.644 C 89.747 177.364,94.083 175.321,94.083 173.054 C 94.083 171.729,91.277 171.981,90.533 173.373 C 89.295 175.686,86.098 174.702,85.250 171.748 C 84.547 169.298,84.677 169.231,90.117 169.231 L 94.830 169.231 94.501 166.774 C 93.862 162.012,88.834 159.536,84.864 162.029 M100.451 161.873 C 94.154 165.290,96.778 176.919,103.846 176.919 C 105.699 176.919,109.467 174.977,109.467 174.022 C 109.467 173.718,109.629 173.048,109.827 172.534 C 110.446 170.920,106.918 171.305,106.205 172.929 C 104.523 176.764,100.000 173.894,100.000 168.992 C 100.000 163.976,105.208 160.771,106.338 165.092 C 106.669 166.356,110.059 166.857,110.059 165.642 C 110.059 162.088,104.253 159.810,100.451 161.873 M164.053 161.829 C 162.996 162.289,162.130 162.411,162.130 162.102 C 162.130 161.792,161.323 161.538,160.337 161.538 L 158.543 161.538 158.710 168.787 L 158.876 176.036 160.355 176.036 C 161.812 176.036,161.837 175.954,161.992 170.710 C 162.158 165.076,163.043 163.314,165.704 163.314 C 168.024 163.314,168.639 164.872,168.639 170.752 C 168.639 176.309,168.645 176.331,170.118 176.331 L 171.598 176.331 171.598 169.934 C 171.598 161.277,169.790 159.335,164.053 161.829 M199.598 161.901 C 193.125 165.094,195.538 176.923,202.663 176.923 C 205.369 176.923,208.876 174.440,208.876 172.524 C 208.876 171.606,205.532 172.314,204.871 173.373 C 203.280 175.920,199.408 173.939,199.408 170.578 C 199.408 169.288,199.611 169.231,204.142 169.231 L 208.876 169.231 208.876 167.426 C 208.876 162.363,204.249 159.608,199.598 161.901 M218.047 161.630 C 217.396 161.986,216.531 162.695,216.124 163.204 C 215.476 164.018,215.385 163.972,215.385 162.835 C 215.385 161.788,215.042 161.538,213.607 161.538 L 211.829 161.538 211.979 168.787 L 212.130 176.036 213.757 176.223 L 215.385 176.410 215.385 171.060 L 215.385 165.711 217.229 164.757 C 218.243 164.233,219.575 163.935,220.187 164.095 C 221.610 164.467,221.778 161.848,220.366 161.306 C 219.246 160.876,219.488 160.842,218.047 161.630 M226.053 161.671 C 221.397 164.132,222.448 168.363,228.089 169.862 C 231.957 170.890,233.237 172.121,231.994 173.619 C 230.723 175.150,226.627 174.688,226.627 173.014 C 226.627 172.492,225.975 172.189,224.852 172.189 C 222.843 172.189,222.837 172.199,223.734 174.167 C 226.043 179.235,236.339 176.814,235.267 171.455 C 234.825 169.244,234.394 168.915,230.375 167.719 C 226.731 166.634,225.538 165.514,226.627 164.201 C 227.705 162.903,230.613 163.079,231.498 164.497 C 232.455 166.028,234.911 166.094,234.911 164.589 C 234.911 161.949,229.130 160.044,226.053 161.671 M69.341 162.574 C 69.491 163.369,70.309 163.678,72.867 163.905 L 76.198 164.201 72.714 169.087 C 67.805 175.972,67.898 176.331,74.600 176.331 C 79.393 176.331,79.947 176.220,79.771 175.296 C 79.616 174.478,78.856 174.223,76.164 174.082 L 72.753 173.905 76.317 168.753 C 81.206 161.686,81.169 161.538,74.513 161.538 C 69.719 161.538,69.165 161.649,69.341 162.574 M175.740 168.935 L 175.740 176.331 177.219 176.331 L 178.698 176.331 178.698 168.935 L 178.698 161.538 177.219 161.538 L 175.740 161.538 175.740 168.935 M181.065 161.726 C 181.065 161.944,184.774 172.272,185.740 174.743 C 187.564 179.412,190.288 175.596,194.425 162.574 C 194.676 161.786,194.418 161.538,193.346 161.538 C 192.094 161.538,191.751 162.127,190.237 166.864 C 189.301 169.793,188.382 172.189,188.195 172.189 C 188.009 172.189,187.078 169.793,186.127 166.864 C 184.492 161.827,184.308 161.538,182.732 161.538 C 181.815 161.538,181.065 161.623,181.065 161.726 M238.462 168.935 L 238.462 176.331 239.941 176.331 L 241.420 176.331 241.420 168.935 L 241.420 161.538 239.941 161.538 L 238.462 161.538 238.462 168.935 M255.621 161.994 C 255.621 162.288,256.830 165.604,258.307 169.363 L 260.993 176.198 259.830 179.258 L 258.667 182.319 260.179 182.136 C 261.791 181.941,261.783 181.957,267.169 166.976 L 269.150 161.468 267.617 161.651 C 266.281 161.811,265.883 162.420,264.511 166.411 C 262.453 172.399,262.571 172.389,260.521 166.732 C 258.961 162.424,258.559 161.812,257.184 161.647 C 256.325 161.544,255.621 161.700,255.621 161.994 M90.512 164.458 C 91.780 166.829,91.310 167.456,88.264 167.456 C 84.897 167.456,84.430 167.139,85.317 165.455 C 86.587 163.039,89.458 162.489,90.512 164.458 M204.589 164.053 C 206.617 166.589,206.137 167.456,202.703 167.456 C 200.019 167.456,199.408 167.272,199.408 166.467 C 199.408 164.043,203.176 162.288,204.589 164.053 M71.893 187.464 C 69.781 187.878,68.639 189.403,68.639 191.808 C 68.639 193.619,68.418 194.083,67.554 194.083 C 66.958 194.083,66.310 194.242,66.116 194.437 C 65.453 195.099,66.395 196.450,67.519 196.450 C 68.547 196.450,68.639 196.961,68.639 202.663 L 68.639 208.876 70.118 208.876 L 71.598 208.876 71.598 202.663 L 71.598 196.450 73.669 196.450 C 75.345 196.450,75.740 196.224,75.740 195.266 C 75.740 194.308,75.345 194.083,73.669 194.083 C 71.782 194.083,71.598 193.932,71.598 192.380 C 71.598 190.318,72.883 189.114,74.528 189.636 C 75.466 189.934,75.740 189.760,75.740 188.866 C 75.740 187.652,74.061 187.040,71.893 187.464 M113.018 187.461 C 110.753 187.799,109.467 189.286,109.467 191.567 C 109.467 193.104,109.178 193.678,108.284 193.911 C 107.629 194.083,107.101 194.719,107.101 195.335 C 107.101 196.055,107.519 196.450,108.284 196.450 C 109.392 196.450,109.467 196.844,109.467 202.663 L 109.467 208.876 110.947 208.876 L 112.426 208.876 112.426 202.663 L 112.426 196.450 114.497 196.450 C 116.174 196.450,116.568 196.224,116.568 195.266 C 116.568 194.308,116.174 194.083,114.497 194.083 C 112.610 194.083,112.426 193.932,112.426 192.380 C 112.426 190.447,113.609 189.189,115.171 189.461 C 116.580 189.706,116.956 187.802,115.561 187.484 C 114.976 187.350,113.831 187.340,113.018 187.461 M101.413 189.012 C 100.824 190.547,101.650 191.816,103.104 191.610 C 104.082 191.471,104.438 191.025,104.438 189.941 C 104.438 188.194,102.013 187.449,101.413 189.012 M147.658 188.597 C 140.367 190.449,141.342 197.686,149.198 200.026 C 153.739 201.378,154.853 202.583,153.767 204.967 C 152.439 207.881,147.138 207.252,146.310 204.082 C 146.005 202.916,142.604 202.393,142.604 203.512 C 142.604 209.568,154.181 211.736,156.723 206.157 C 158.563 202.117,156.987 199.236,152.191 197.877 C 147.992 196.686,146.154 195.555,146.154 194.161 C 146.154 190.930,151.703 190.045,153.135 193.047 C 154.653 196.231,157.838 195.076,156.475 191.836 C 155.284 189.002,151.515 187.617,147.658 188.597 M175.821 189.197 C 175.019 190.696,175.866 191.862,177.582 191.620 C 178.641 191.470,178.994 191.050,178.994 189.941 C 178.994 188.068,176.711 187.533,175.821 189.197 M87.574 199.067 L 87.574 209.456 92.989 209.175 C 98.862 208.870,99.135 208.785,98.612 207.422 C 98.350 206.739,97.365 206.509,94.709 206.509 L 91.156 206.509 90.992 197.781 L 90.828 189.053 89.201 188.866 L 87.574 188.679 87.574 199.067 M269.703 197.781 C 269.482 209.080,269.537 209.503,271.194 209.254 C 272.312 209.086,272.525 208.592,272.781 205.565 L 273.077 202.071 276.331 201.757 C 288.184 200.612,285.175 188.757,273.032 188.757 L 269.880 188.757 269.703 197.781 M277.316 191.753 C 281.931 193.507,280.259 199.408,275.148 199.408 L 272.781 199.408 272.781 195.661 C 272.781 190.826,273.423 190.273,277.316 191.753 M53.786 194.840 C 48.167 198.610,50.049 208.400,56.561 209.273 C 61.319 209.911,64.497 206.771,64.497 201.431 C 64.497 195.001,58.784 191.486,53.786 194.840 M122.715 193.922 C 117.202 194.902,116.006 205.358,121.030 208.650 C 124.036 210.620,130.769 208.299,130.769 205.292 C 130.769 204.207,127.516 204.715,126.765 205.917 C 125.193 208.434,121.302 206.609,121.302 203.356 L 121.302 201.775 126.036 201.775 L 130.769 201.775 130.769 199.713 C 130.769 196.013,126.841 193.188,122.715 193.922 M164.552 194.263 C 156.927 196.938,158.915 209.457,166.966 209.465 C 169.476 209.468,172.781 207.085,172.781 205.273 C 172.781 203.558,170.899 203.889,169.120 205.917 C 166.455 208.954,163.314 206.909,163.314 202.136 C 163.314 196.293,166.131 194.128,169.310 197.529 C 171.029 199.369,172.781 199.525,172.781 197.839 C 172.781 196.729,170.124 194.083,169.010 194.083 C 168.534 194.083,167.790 193.964,167.356 193.820 C 166.923 193.675,165.661 193.874,164.552 194.263 M185.767 194.544 C 180.980 196.935,180.645 206.221,185.261 208.608 C 188.938 210.509,194.627 208.613,194.665 205.473 C 194.681 204.236,191.818 204.621,191.106 205.952 C 190.111 207.810,186.939 207.316,185.901 205.142 C 184.534 202.274,185.218 201.775,190.514 201.775 C 195.832 201.775,195.927 201.675,194.348 197.729 C 192.950 194.236,189.185 192.838,185.767 194.544 M203.380 194.611 C 201.645 195.495,201.183 195.557,201.183 194.907 C 201.183 194.422,200.574 194.083,199.704 194.083 L 198.225 194.083 198.225 201.479 L 198.225 208.876 199.704 208.876 C 201.178 208.876,201.183 208.855,201.183 203.275 C 201.183 197.094,201.565 196.450,205.223 196.450 C 207.462 196.450,207.692 197.115,207.692 203.599 L 207.692 208.876 209.467 208.876 L 211.243 208.876 211.243 203.639 C 211.243 194.444,208.925 191.783,203.380 194.611 M218.469 194.183 C 214.858 195.180,213.086 200.765,214.810 205.711 C 216.383 210.223,224.098 210.827,226.279 206.609 C 227.828 203.615,225.664 203.148,223.077 205.917 C 219.462 209.787,215.717 204.685,217.719 198.618 C 218.738 195.532,222.505 194.898,223.382 197.663 C 223.766 198.873,227.219 199.387,227.219 198.234 C 227.219 195.604,222.026 193.200,218.469 194.183 M233.757 194.278 C 228.568 196.037,227.754 206.103,232.598 208.608 C 236.493 210.622,242.012 208.669,242.012 205.277 C 242.012 204.209,239.094 204.735,238.462 205.917 C 237.054 208.546,233.392 207.145,233.033 203.839 L 232.840 202.071 237.722 201.899 C 243.102 201.710,243.283 201.533,241.968 197.760 C 240.872 194.616,237.268 193.088,233.757 194.278 M247.506 194.365 C 242.631 196.484,244.425 201.342,250.592 202.724 C 252.866 203.234,253.846 204.020,253.846 205.335 C 253.846 207.354,249.566 207.811,248.383 205.917 C 247.407 204.354,244.970 204.323,244.970 205.874 C 244.970 207.634,247.744 209.467,250.405 209.467 C 258.105 209.467,259.546 201.563,252.091 200.221 C 249.143 199.690,247.929 198.948,247.929 197.676 C 247.929 195.620,251.503 195.182,253.096 197.041 C 254.565 198.757,256.213 198.584,256.213 196.715 C 256.213 194.029,251.318 192.707,247.506 194.365 M292.308 193.960 C 291.820 194.113,290.954 194.643,290.385 195.139 C 289.452 195.952,289.349 195.944,289.349 195.062 C 289.349 194.369,288.831 194.083,287.574 194.083 L 285.799 194.083 285.799 201.479 L 285.799 208.876 287.574 208.876 L 289.349 208.876 289.349 203.623 C 289.349 197.688,289.854 196.805,293.251 196.805 C 294.928 196.805,295.266 196.588,295.266 195.513 C 295.266 194.182,293.899 193.464,292.308 193.960 M302.071 193.910 C 298.243 194.667,295.459 198.817,298.778 198.817 C 299.943 198.817,300.546 198.464,300.756 197.660 C 301.508 194.783,305.917 195.763,305.917 198.807 C 305.917 200.315,305.708 200.452,302.884 200.786 C 299.190 201.224,297.319 202.365,296.781 204.508 C 295.869 208.142,300.248 210.611,304.152 208.663 C 305.123 208.179,305.917 208.029,305.917 208.329 C 305.917 208.630,306.746 208.876,307.759 208.876 L 309.602 208.876 309.372 202.664 C 309.087 194.976,307.330 192.869,302.071 193.910 M316.864 194.033 C 311.034 196.555,311.146 207.405,317.018 209.089 C 318.324 209.463,319.337 209.354,320.656 208.695 L 322.485 207.783 322.485 209.736 C 322.485 213.104,318.616 214.510,316.509 211.908 C 315.228 210.327,313.018 210.222,313.018 211.743 C 313.018 214.627,318.844 216.380,322.370 214.557 C 325.282 213.051,325.671 211.734,325.930 202.496 L 326.168 194.044 323.883 194.147 C 322.626 194.203,320.799 194.085,319.822 193.885 C 318.846 193.685,317.515 193.752,316.864 194.033 M349.830 194.174 C 344.703 195.614,343.811 206.145,348.607 208.624 C 352.471 210.623,357.988 208.655,357.988 205.277 C 357.988 204.239,355.310 204.741,354.575 205.917 C 352.961 208.502,349.371 207.162,349.009 203.839 L 348.817 202.071 353.698 201.899 C 359.162 201.707,359.430 201.406,357.742 197.366 C 356.508 194.413,353.418 193.166,349.830 194.174 M101.183 201.479 L 101.183 208.954 102.811 208.767 L 104.438 208.580 104.438 201.479 L 104.438 194.379 102.811 194.191 L 101.183 194.004 101.183 201.479 M175.740 201.479 L 175.740 208.876 177.515 208.876 L 179.290 208.876 179.290 201.479 L 179.290 194.083 177.515 194.083 L 175.740 194.083 175.740 201.479 M329.586 200.592 C 329.586 209.079,332.343 211.911,337.257 208.469 C 338.269 207.760,338.751 207.674,338.918 208.173 C 339.046 208.559,339.929 208.876,340.878 208.876 L 342.604 208.876 342.604 201.479 L 342.604 194.083 340.828 194.083 L 339.053 194.083 339.053 199.683 C 339.053 205.781,338.649 206.509,335.267 206.509 C 333.123 206.509,332.544 204.945,332.544 199.151 C 332.544 194.139,332.528 194.083,331.065 194.083 L 329.586 194.083 329.586 200.592 M60.554 198.378 C 62.547 202.457,60.862 207.101,57.388 207.101 C 55.150 207.101,53.846 205.185,53.846 201.900 C 53.846 195.884,58.215 193.590,60.554 198.378 M126.143 196.598 C 128.595 198.558,127.899 200.000,124.501 200.000 C 121.032 200.000,120.610 199.476,122.223 197.173 C 123.252 195.704,124.750 195.484,126.143 196.598 M190.795 197.173 C 192.418 199.490,191.990 200.000,188.422 200.000 C 185.283 200.000,185.146 199.937,185.523 198.669 C 186.374 195.802,189.261 194.983,190.795 197.173 M238.132 197.173 C 239.751 199.485,239.326 200.000,235.799 200.000 C 232.272 200.000,232.215 199.956,233.225 198.038 C 234.561 195.500,236.696 195.123,238.132 197.173 M353.714 196.779 C 356.283 198.578,355.436 200.000,351.794 200.000 C 348.332 200.000,348.024 199.406,350.182 196.893 C 351.277 195.618,352.022 195.594,353.714 196.779 M321.549 196.809 C 323.351 197.500,322.855 205.559,320.958 206.423 C 318.672 207.464,316.416 206.190,315.744 203.478 C 314.532 198.587,317.450 195.236,321.549 196.809 M305.807 204.271 C 305.574 206.661,302.397 207.976,300.775 206.354 C 299.051 204.630,301.127 202.500,304.623 202.404 C 305.815 202.372,305.968 202.613,305.807 204.271 " stroke="none" fill="#000000" fill-rule="evenodd"></path></g></svg>