<svg id="svg" version="1.1" xmlns="http://www.w3.org/2000/svg" xmlns:xlink="http://www.w3.org/1999/xlink" width="400" height="307.6923076923077" viewBox="0, 0, 400,307.6923076923077"><g id="svgg"><path id="path0" d="M182.308 4.427 C 126.666 12.045,89.285 42.301,78.805 88.205 C 77.698 93.053,77.692 93.364,77.692 152.821 L 77.692 212.564 79.153 218.718 C 89.678 263.054,127.554 295.780,176.476 302.807 C 184.154 303.910,211.540 303.902,219.598 302.794 C 270.292 295.828,309.589 264.971,320.142 223.846 C 322.903 213.087,322.821 215.315,322.821 151.795 L 322.821 92.564 321.425 87.068 C 310.793 45.196,275.037 14.738,225.752 5.569 C 220.021 4.503,187.918 3.659,182.308 4.427 M218.718 8.938 C 272.905 16.216,311.808 50.336,318.745 96.667 C 319.684 102.939,319.438 192.691,318.441 207.179 C 315.363 251.954,278.700 287.696,225.897 297.397 C 153.176 310.757,90.153 271.623,81.802 207.922 C 80.657 199.186,80.654 107.527,81.799 97.743 C 88.647 39.204,149.619 -0.342,218.718 8.938 M185.981 14.721 C 185.149 14.936,185.079 15.316,185.386 17.957 L 185.733 20.949 183.356 21.306 C 180.457 21.740,180.519 21.799,180.153 18.259 C 179.876 15.576,179.768 15.385,178.518 15.392 C 175.759 15.409,175.719 15.590,176.665 23.906 C 177.683 32.860,177.415 32.164,179.747 31.892 L 181.607 31.675 181.261 28.441 L 180.915 25.208 183.302 24.850 C 186.222 24.412,186.079 24.265,186.483 28.128 L 186.815 31.301 188.664 30.967 C 189.681 30.783,190.592 30.566,190.688 30.483 C 190.784 30.401,190.496 26.969,190.047 22.856 C 189.598 18.744,189.231 15.150,189.231 14.869 C 189.231 14.351,187.689 14.280,185.981 14.721 M205.448 15.801 C 204.668 17.341,200.242 27.503,199.486 29.490 C 199.021 30.714,199.084 30.769,200.935 30.769 C 202.693 30.769,202.932 30.599,203.541 28.916 C 204.180 27.150,204.299 27.077,206.080 27.372 C 207.108 27.542,208.342 27.684,208.823 27.687 C 209.410 27.690,209.805 28.267,210.025 29.440 C 210.362 31.234,211.223 31.773,213.778 31.788 C 214.692 31.793,214.928 31.573,214.732 30.897 C 214.590 30.404,213.618 26.769,212.573 22.821 C 210.421 14.693,210.649 15.104,208.074 14.714 C 206.360 14.455,206.070 14.575,205.448 15.801 M217.568 23.676 C 215.839 32.326,215.839 32.308,217.943 32.308 C 219.531 32.308,219.381 32.694,220.874 24.758 L 221.282 22.593 223.547 28.197 C 225.588 33.250,225.959 33.835,227.315 34.132 C 229.406 34.592,229.492 34.412,230.780 26.923 C 232.346 17.824,232.364 18.235,230.385 18.044 C 229.468 17.956,228.718 17.971,228.718 18.078 C 228.718 18.566,227.604 24.463,227.348 25.336 C 227.147 26.018,226.527 24.934,225.296 21.746 C 223.244 16.432,223.366 16.590,220.980 16.152 L 219.139 15.814 217.568 23.676 M165.098 17.900 C 157.514 20.331,158.765 27.692,166.763 27.692 C 169.632 27.692,170.309 27.858,170.740 28.664 C 171.783 30.612,166.675 32.365,165.328 30.522 C 164.554 29.463,161.538 30.292,161.538 31.563 C 161.538 33.930,167.264 35.194,170.969 33.646 C 177.817 30.785,175.832 23.590,168.196 23.590 C 164.570 23.590,163.555 23.072,164.634 21.772 C 165.340 20.922,168.254 20.767,169.026 21.539 C 169.639 22.152,172.298 21.072,172.304 20.208 C 172.316 18.449,167.849 17.018,165.098 17.900 M207.290 24.013 C 205.583 24.244,205.521 24.051,206.540 21.646 L 207.436 19.530 207.978 21.688 C 208.498 23.756,208.469 23.853,207.290 24.013 M233.716 26.799 C 230.701 35.831,230.541 34.905,235.371 36.352 C 248.879 40.399,253.907 25.080,240.541 20.596 C 238.724 19.986,236.993 19.489,236.695 19.491 C 236.397 19.494,235.057 22.782,233.716 26.799 M153.205 21.370 C 151.145 21.929,156.558 37.240,158.756 37.072 C 161.311 36.876,161.305 36.341,158.659 28.619 C 156.044 20.986,155.802 20.665,153.205 21.370 M144.760 24.798 C 142.160 25.967,140.025 27.107,140.016 27.331 C 140.003 27.666,146.049 41.383,146.470 41.974 C 146.732 42.341,150.256 40.928,150.256 40.456 C 150.256 40.186,149.664 38.797,148.940 37.368 C 148.216 35.939,147.697 34.707,147.786 34.631 C 147.876 34.554,149.045 34.013,150.385 33.429 C 153.066 32.258,153.187 32.033,152.025 30.375 L 151.230 29.240 148.737 30.503 L 146.244 31.766 145.684 30.159 C 145.376 29.275,145.182 28.515,145.254 28.469 C 145.326 28.424,146.708 27.827,148.325 27.142 C 151.317 25.875,151.694 25.318,150.751 23.556 C 150.092 22.324,150.414 22.257,144.760 24.798 M243.498 26.345 C 244.844 29.091,242.347 33.853,239.570 33.839 C 235.860 33.820,235.843 33.774,237.588 28.476 L 239.159 23.707 240.990 24.335 C 242.089 24.711,243.092 25.515,243.498 26.345 M258.570 36.828 L 255.902 44.871 257.053 45.757 C 258.820 47.117,259.382 46.909,263.264 43.462 C 265.249 41.699,266.728 40.633,266.552 41.094 C 266.376 41.554,265.754 43.478,265.171 45.368 C 264.587 47.259,263.996 48.988,263.859 49.210 C 263.524 49.752,258.864 48.856,258.439 48.168 C 258.254 47.869,256.280 47.507,254.051 47.364 C 250.693 47.148,249.167 46.723,245.128 44.881 C 217.079 32.088,178.806 33.145,151.317 47.472 C 126.216 60.555,111.390 83.165,110.019 110.455 C 109.238 126.008,109.213 195.767,109.986 201.638 C 115.910 246.601,157.282 277.226,207.522 273.840 C 253.274 270.757,285.563 243.999,291.301 204.413 C 292.423 196.667,292.254 107.914,291.106 102.308 C 287.345 83.941,277.597 67.446,264.229 56.824 C 261.387 54.565,260.991 54.076,261.903 53.944 C 263.604 53.698,264.432 52.440,263.683 51.240 C 262.877 49.950,263.624 49.988,265.322 51.324 L 266.680 52.392 269.365 50.178 C 280.036 41.378,280.273 41.107,278.237 40.017 C 277.017 39.364,276.745 39.497,273.090 42.520 C 270.967 44.276,269.231 45.624,269.231 45.516 C 269.231 45.409,269.917 43.290,270.756 40.809 L 272.281 36.297 271.141 35.345 C 269.509 33.983,268.920 34.113,266.508 36.368 C 265.326 37.473,263.728 38.872,262.956 39.476 L 261.554 40.575 263.146 36.203 C 264.909 31.364,264.879 30.897,262.728 29.649 L 261.239 28.786 258.570 36.828 M122.725 38.396 L 121.090 39.764 123.817 47.703 C 126.684 56.050,126.741 56.133,128.621 54.802 C 129.754 53.999,129.773 53.883,129.044 52.139 L 128.283 50.317 130.470 48.524 L 132.657 46.732 134.309 47.737 C 135.920 48.717,138.991 47.735,138.969 46.247 C 138.965 45.978,127.560 38.742,124.872 37.302 C 124.590 37.151,123.623 37.643,122.725 38.396 M129.438 45.208 C 128.447 46.812,127.186 46.650,126.422 44.821 C 125.376 42.318,125.356 42.338,127.671 43.640 C 128.788 44.267,129.583 44.973,129.438 45.208 M275.704 49.525 L 270.126 55.436 271.306 56.692 C 271.955 57.383,272.672 57.949,272.898 57.949 C 273.324 57.949,280.325 50.786,282.823 47.796 L 284.235 46.105 283.054 44.847 C 281.484 43.177,282.009 42.842,275.704 49.525 M111.734 49.106 C 110.144 50.164,105.567 55.430,105.762 55.977 C 105.976 56.576,117.355 66.154,117.853 66.154 C 118.344 66.154,121.848 62.115,123.310 59.863 C 127.212 53.855,117.774 45.085,111.734 49.106 M254.359 49.676 C 254.359 49.921,255.315 50.250,256.484 50.406 C 259.125 50.761,260.004 51.866,258.144 52.494 C 257.216 52.807,256.905 53.209,257.079 53.874 C 257.287 54.669,256.904 54.864,254.560 55.157 C 252.789 55.379,251.795 55.746,251.795 56.178 C 251.795 56.550,251.277 57.018,250.643 57.220 C 250.009 57.421,249.259 57.871,248.976 58.221 C 248.374 58.965,237.234 62.689,232.085 63.868 C 230.129 64.315,228.010 64.955,227.376 65.290 C 225.282 66.394,219.147 75.069,217.169 79.724 L 215.785 82.980 218.090 86.544 C 221.765 92.225,227.998 96.140,244.475 103.120 C 255.081 107.612,255.281 107.795,247.179 105.602 C 245.910 105.259,244.295 104.917,243.590 104.843 C 239.583 104.421,234.864 103.645,234.341 103.322 C 233.510 102.808,224.615 102.631,224.615 103.128 C 224.615 103.349,224.881 103.693,225.206 103.894 C 225.617 104.148,225.520 104.461,224.885 104.925 C 224.249 105.390,224.101 105.870,224.393 106.514 C 224.623 107.021,224.856 108.128,224.911 108.974 C 225.187 113.252,227.797 121.614,229.873 124.872 L 230.854 126.410 229.503 124.872 C 227.743 122.868,225.292 118.494,218.706 105.605 C 212.562 93.583,210.468 91.193,207.010 92.259 C 206.116 92.535,204.115 92.989,202.564 93.268 C 199.641 93.793,196.806 94.607,191.538 96.433 L 188.462 97.500 186.993 101.442 C 185.535 105.357,183.646 108.912,181.249 112.255 C 180.562 113.214,180.000 114.512,180.000 115.141 C 180.000 115.770,179.651 116.574,179.225 116.928 C 178.798 117.282,177.996 118.522,177.443 119.683 C 176.889 120.845,176.199 122.141,175.910 122.564 C 175.621 122.987,175.143 123.910,174.849 124.615 C 174.555 125.321,173.982 126.474,173.575 127.179 L 172.836 128.462 172.828 126.996 C 172.822 125.879,172.630 125.604,172.018 125.839 C 171.389 126.081,171.290 125.910,171.563 125.050 C 171.859 124.120,171.747 123.996,170.828 124.236 C 169.427 124.602,169.429 124.515,171.065 113.365 C 173.249 98.478,175.925 87.418,177.783 85.599 C 178.297 85.095,180.564 83.958,182.821 83.071 C 185.077 82.184,187.402 81.013,187.987 80.468 C 189.046 79.482,189.057 79.487,190.650 81.706 C 193.179 85.227,199.914 90.021,200.900 89.002 C 201.110 88.784,200.705 88.246,200.000 87.806 C 197.445 86.212,189.640 77.844,188.676 75.665 C 187.459 72.914,183.867 69.552,182.521 69.904 C 181.676 70.124,181.630 70.018,182.146 69.054 C 182.516 68.363,182.816 68.190,182.949 68.591 C 183.279 69.582,184.103 69.346,184.103 68.260 C 184.103 67.726,184.407 67.172,184.779 67.030 C 185.214 66.863,185.442 67.162,185.420 67.872 C 185.395 68.639,185.736 69.024,186.541 69.139 C 187.924 69.335,188.602 68.020,187.687 66.917 C 186.002 64.886,191.229 66.432,194.621 68.967 C 198.771 72.069,203.030 69.359,208.338 60.241 C 212.042 53.877,212.539 53.533,219.853 52.291 C 230.825 50.428,254.359 48.644,254.359 49.676 M281.538 54.377 C 278.577 56.894,275.981 58.958,275.769 58.964 C 274.687 58.994,275.707 60.946,278.534 64.259 C 280.267 66.288,281.751 68.029,281.833 68.127 C 282.046 68.384,284.580 66.480,284.599 66.048 C 284.608 65.849,283.695 64.695,282.570 63.484 C 279.988 60.703,279.757 61.304,285.104 56.878 C 290.161 52.692,290.090 52.801,288.915 51.008 C 287.733 49.203,287.501 49.309,281.538 54.377 M117.339 52.834 C 120.387 54.692,121.108 58.529,118.773 60.467 C 117.892 61.198,117.337 60.867,112.624 56.796 C 109.053 53.713,113.143 50.275,117.339 52.834 M101.781 61.375 C 101.208 62.249,101.050 62.983,101.340 63.413 C 102.076 64.501,113.942 71.868,114.570 71.627 C 115.205 71.383,116.709 68.815,116.368 68.558 C 116.110 68.363,104.095 60.840,103.261 60.352 C 102.934 60.160,102.282 60.610,101.781 61.375 M290.115 65.329 C 286.511 67.396,283.427 69.223,283.261 69.389 C 281.908 70.742,288.618 78.717,291.576 79.272 C 299.114 80.686,303.695 72.798,299.619 65.421 C 297.133 60.922,297.787 60.928,290.115 65.329 M297.150 67.806 C 298.962 70.392,297.389 73.874,293.947 74.899 C 291.494 75.630,289.542 74.909,288.497 72.888 L 287.713 71.373 291.677 69.070 C 296.405 66.324,296.153 66.382,297.150 67.806 M97.824 69.731 C 97.116 70.289,95.889 72.308,95.099 74.218 C 94.309 76.129,93.473 77.912,93.241 78.179 C 92.362 79.198,92.900 79.890,95.256 80.774 C 96.596 81.276,99.861 82.692,102.511 83.920 C 108.274 86.592,107.854 86.555,108.615 84.451 C 109.354 82.406,109.376 82.051,108.760 82.051 C 108.502 82.051,107.223 81.594,105.919 81.035 C 102.060 79.381,103.515 77.206,108.363 77.382 C 111.643 77.501,111.755 77.463,112.533 75.957 C 113.811 73.487,113.633 73.333,109.487 73.333 C 105.954 73.333,105.641 73.248,105.641 72.284 C 105.641 69.237,100.561 67.578,97.824 69.731 M203.077 70.513 C 203.077 71.024,203.588 71.282,204.599 71.282 C 205.674 71.282,206.043 71.488,205.853 71.982 C 205.675 72.445,206.109 72.786,207.141 72.992 C 208.264 73.217,208.613 73.522,208.396 74.088 C 208.223 74.538,208.373 74.872,208.749 74.872 C 209.108 74.872,209.269 75.004,209.107 75.166 C 208.946 75.328,208.111 75.097,207.253 74.653 C 206.394 74.209,205.450 73.846,205.154 73.846 C 204.100 73.846,204.637 75.230,205.917 75.813 C 206.633 76.139,208.354 77.468,209.742 78.766 C 212.419 81.270,214.169 81.714,212.376 79.434 C 211.662 78.527,211.421 77.635,211.593 76.542 C 211.730 75.673,211.611 74.819,211.328 74.644 C 211.045 74.469,210.928 74.028,211.068 73.665 C 211.209 73.298,210.746 72.741,210.030 72.415 C 209.254 72.061,208.847 71.541,209.012 71.113 C 209.205 70.609,208.713 70.305,207.335 70.077 C 204.204 69.560,203.077 69.675,203.077 70.513 M101.240 72.619 C 102.414 73.069,102.097 76.352,100.682 78.402 C 100.532 78.619,97.436 77.416,97.436 77.141 C 97.436 76.628,98.766 73.976,99.409 73.205 C 100.266 72.179,100.172 72.209,101.240 72.619 M297.493 80.522 C 293.717 81.911,290.537 83.138,290.426 83.249 C 290.176 83.499,293.322 92.397,293.878 93.014 C 294.545 93.752,296.923 92.893,296.923 91.913 C 296.923 91.425,296.477 89.853,295.932 88.420 L 294.942 85.814 300.803 83.804 C 306.811 81.745,307.007 81.578,306.343 79.103 C 305.923 77.534,305.374 77.622,297.493 80.522 M93.344 86.026 C 86.442 89.494,88.691 99.087,96.686 100.286 C 105.960 101.677,109.818 90.767,101.548 86.538 C 98.366 84.911,95.873 84.755,93.344 86.026 M234.462 85.692 C 242.558 87.371,246.826 92.308,240.181 92.308 C 237.606 92.308,236.913 93.119,237.270 95.719 L 237.593 98.081 233.826 96.092 L 230.058 94.103 230.195 90.263 C 230.312 87.026,230.822 85.128,231.576 85.128 C 231.669 85.128,232.967 85.382,234.462 85.692 M173.220 86.977 C 174.771 87.288,174.773 87.291,174.045 89.033 C 172.798 92.019,170.347 102.815,169.694 108.200 L 169.071 113.343 168.125 111.231 C 167.605 110.069,167.179 108.801,167.179 108.412 C 167.179 107.985,166.725 107.753,166.033 107.827 C 165.097 107.926,164.760 107.550,164.190 105.769 C 163.293 102.967,161.026 102.507,161.026 105.128 C 161.026 107.072,160.770 107.056,157.154 104.878 C 155.403 103.824,153.155 102.953,151.682 102.757 L 149.182 102.426 150.232 101.308 C 151.492 99.967,151.564 99.192,150.471 98.773 C 148.859 98.154,147.477 98.494,144.242 100.303 C 140.681 102.294,138.791 102.360,138.205 100.512 C 137.768 99.136,137.156 99.222,136.050 100.812 C 132.979 105.226,132.388 105.641,129.178 105.641 C 125.553 105.641,125.402 105.197,127.936 101.995 C 130.709 98.492,130.752 97.319,128.212 94.563 C 127.037 93.289,125.643 91.279,125.113 90.098 L 124.150 87.949 146.049 87.398 C 158.094 87.096,168.785 86.807,169.808 86.757 C 170.830 86.707,172.366 86.806,173.220 86.977 M98.718 89.797 C 102.529 90.840,103.933 93.855,101.424 95.612 C 99.348 97.066,93.625 95.705,92.810 93.563 C 91.552 90.254,94.204 88.563,98.718 89.797 M301.885 92.748 L 294.283 94.615 294.556 96.346 C 294.705 97.297,294.948 98.196,295.095 98.343 C 295.374 98.622,310.181 95.118,310.633 94.666 C 311.004 94.295,310.282 90.758,309.849 90.825 C 309.650 90.856,306.066 91.722,301.885 92.748 M210.266 95.392 C 211.261 96.100,213.481 99.856,217.332 107.349 C 223.933 120.189,226.548 124.577,229.901 128.441 C 234.390 133.613,235.256 131.239,231.591 123.805 C 228.874 118.293,228.257 116.175,227.214 108.803 C 226.616 104.576,226.964 104.408,234.103 105.483 C 235.513 105.695,237.013 105.893,237.436 105.923 C 242.496 106.281,248.291 107.826,248.749 108.940 C 253.461 120.395,258.324 128.986,262.810 133.782 C 265.035 136.160,265.096 136.319,265.441 140.545 C 265.763 144.497,266.050 145.360,268.753 150.513 C 271.673 156.081,273.333 160.580,273.333 162.929 C 273.333 163.660,274.027 164.743,275.097 165.683 C 277.108 167.448,278.151 170.942,277.863 174.947 L 277.692 177.329 273.333 170.879 C 268.265 163.379,265.210 160.746,259.405 158.876 L 255.791 157.712 254.806 158.928 C 253.554 160.475,253.814 161.345,256.940 166.062 C 259.844 170.445,262.564 178.391,262.564 182.492 C 262.564 185.121,265.467 186.552,268.590 185.462 C 269.414 185.174,269.744 185.256,269.744 185.749 C 269.744 186.955,268.217 188.690,267.423 188.386 C 267.008 188.226,264.757 189.018,262.419 190.144 C 257.739 192.400,255.183 193.339,250.239 194.620 L 246.946 195.473 245.828 194.173 C 245.208 193.452,244.331 191.207,243.859 189.135 C 242.601 183.604,241.781 182.142,239.827 181.952 C 238.367 181.811,238.205 181.626,238.205 180.110 C 238.205 178.317,237.360 177.457,235.586 177.444 C 234.870 177.439,233.142 175.871,230.462 172.795 C 224.501 165.953,224.347 165.500,226.174 160.208 C 227.256 157.073,227.163 154.872,225.947 154.872 C 225.563 154.872,225.127 155.333,224.980 155.897 C 224.445 157.941,223.135 157.023,222.252 153.985 C 221.533 151.514,221.454 149.700,221.751 142.555 C 222.208 131.567,220.882 124.989,218.252 125.201 C 216.001 125.383,215.443 125.061,214.135 122.830 C 212.747 120.460,211.523 119.492,209.906 119.481 C 209.235 119.476,208.569 118.472,207.527 115.899 C 204.203 107.688,188.718 101.262,188.718 108.094 C 188.718 110.050,187.767 111.129,185.816 111.388 L 184.196 111.604 185.352 109.901 C 185.989 108.965,187.291 106.261,188.247 103.892 C 189.718 100.245,190.221 99.502,191.530 99.042 C 199.185 96.354,202.575 95.383,204.340 95.377 C 205.479 95.372,206.756 95.145,207.179 94.872 C 208.270 94.167,208.632 94.228,210.266 95.392 M243.867 95.518 C 243.920 95.586,244.448 96.955,245.041 98.561 L 246.118 101.480 244.143 100.783 C 241.746 99.938,238.974 98.534,238.974 98.166 C 238.974 95.896,242.620 93.923,243.867 95.518 M303.180 100.166 L 295.848 101.228 296.001 103.050 L 296.154 104.872 299.193 104.731 C 302.631 104.572,303.057 104.908,303.069 107.790 C 303.078 109.991,303.542 110.417,305.418 109.946 C 306.728 109.617,306.767 109.506,306.439 107.029 C 306.083 104.344,306.479 103.614,308.302 103.598 C 308.951 103.592,309.247 104.201,309.484 106.026 C 310.081 110.631,310.149 110.769,311.805 110.769 C 313.617 110.769,313.635 110.630,312.717 103.718 C 312.225 100.011,311.915 98.989,311.300 99.040 C 310.867 99.076,307.213 99.583,303.180 100.166 M100.321 103.141 C 100.144 104.022,100.000 105.653,100.000 106.765 C 100.000 108.444,99.848 108.745,99.103 108.538 C 96.492 107.815,87.536 107.627,87.118 108.287 C 85.125 111.432,86.080 111.812,98.035 112.628 L 102.992 112.966 103.268 110.714 C 103.420 109.475,103.676 106.904,103.838 105.000 L 104.131 101.538 102.386 101.538 C 100.842 101.538,100.604 101.723,100.321 103.141 M134.238 110.385 C 131.689 117.513,131.667 128.205,134.202 128.205 C 134.611 128.205,138.448 126.650,142.729 124.748 C 150.484 121.304,150.533 121.291,155.834 121.110 C 167.123 120.725,168.221 122.041,157.444 123.040 C 151.838 123.560,151.283 123.720,145.905 126.373 C 142.798 127.906,138.641 129.887,136.667 130.775 C 128.036 134.659,127.410 139.715,134.693 146.702 C 141.845 153.562,150.174 157.965,152.618 156.178 C 153.627 155.440,153.394 141.903,152.311 138.285 C 151.986 137.201,151.822 136.212,151.947 136.087 C 152.598 135.436,154.014 140.264,154.882 146.097 C 156.362 156.032,156.768 157.469,158.665 159.487 C 159.593 160.474,160.839 161.995,161.435 162.867 L 162.518 164.452 160.518 165.576 C 158.036 166.972,156.374 166.657,153.721 164.287 C 152.665 163.344,149.236 161.298,146.102 159.740 C 125.583 149.544,118.119 135.975,122.579 116.976 C 123.937 111.194,124.294 111.232,123.629 117.088 C 122.940 123.153,124.851 133.887,126.684 134.240 C 128.610 134.611,130.647 129.379,130.929 123.333 C 131.196 117.610,133.000 109.857,134.658 107.308 C 135.898 105.401,135.823 105.951,134.238 110.385 M300.641 113.713 L 297.436 113.895 297.436 119.512 L 297.436 125.128 299.231 125.128 L 301.026 125.128 301.026 121.282 L 301.026 117.436 302.564 117.436 L 304.103 117.436 304.103 120.513 L 304.103 123.590 305.923 123.590 L 307.743 123.590 307.395 120.513 L 307.047 117.436 308.908 117.436 L 310.769 117.436 310.769 121.282 L 310.769 125.128 312.308 125.128 L 313.846 125.128 313.846 119.231 L 313.846 113.333 308.846 113.432 C 306.096 113.486,302.404 113.613,300.641 113.713 M87.185 117.821 C 87.188 119.724,87.334 122.147,87.509 123.205 L 87.827 125.128 95.452 125.128 L 103.077 125.128 103.077 123.077 L 103.077 121.026 100.027 121.026 L 96.977 121.026 96.822 118.333 C 96.575 114.056,93.846 113.854,93.846 118.113 C 93.846 120.828,93.801 120.916,92.308 121.135 L 90.769 121.361 90.769 117.860 L 90.769 114.359 88.974 114.359 L 87.179 114.359 87.185 117.821 M199.203 124.359 C 199.719 130.391,200.493 134.999,201.116 135.749 C 203.476 138.593,206.555 130.983,204.330 127.806 C 203.202 126.196,204.158 126.390,205.801 128.105 C 210.035 132.523,203.321 142.447,189.328 152.454 C 181.418 158.111,180.513 159.204,180.513 163.095 C 180.513 166.424,179.789 167.009,177.662 165.401 C 177.115 164.987,176.263 164.641,175.769 164.632 C 175.153 164.621,174.872 164.205,174.872 163.308 C 174.872 162.589,174.552 161.377,174.160 160.616 C 173.769 159.854,172.072 155.423,170.389 150.769 C 165.593 137.504,165.699 136.516,170.883 146.154 C 176.192 156.022,176.827 156.572,180.570 154.535 C 189.247 149.812,190.144 142.577,183.511 130.811 C 180.884 126.151,179.486 120.135,181.797 123.438 C 184.581 127.418,188.697 136.092,189.454 139.574 C 190.563 144.679,191.173 145.200,194.182 143.603 C 198.561 141.281,198.564 141.271,198.204 129.253 C 197.889 118.710,198.475 115.839,199.203 124.359 M94.169 135.427 C 94.047 135.827,93.670 137.226,93.332 138.537 L 92.717 140.920 89.948 141.266 C 86.623 141.682,86.591 141.812,89.237 144.103 L 91.310 145.897 90.710 148.858 C 89.941 152.653,90.238 152.867,93.064 150.551 L 95.385 148.649 97.705 150.551 C 100.580 152.906,100.781 152.720,99.732 148.675 L 98.894 145.441 100.986 143.451 C 103.676 140.892,103.639 140.769,100.176 140.769 L 97.274 140.769 96.458 138.355 C 95.511 135.556,94.519 134.287,94.169 135.427 M304.986 135.742 C 304.857 135.969,304.466 137.365,304.119 138.846 L 303.487 141.538 300.718 141.538 C 297.341 141.538,297.168 142.225,300.012 144.329 C 302.273 146.002,302.284 146.043,301.488 149.754 C 300.759 153.156,301.075 153.359,303.578 151.098 C 306.072 148.844,306.042 148.846,308.462 150.769 C 311.509 153.191,311.668 153.033,310.521 148.723 L 309.772 145.908 311.809 143.832 C 314.446 141.145,314.405 141.026,310.835 141.026 L 307.824 141.026 307.083 138.365 C 306.390 135.873,305.529 134.795,304.986 135.742 M131.504 155.437 C 136.578 156.846,146.145 168.507,146.157 173.296 C 146.159 174.223,146.617 174.875,147.696 175.489 C 152.689 178.331,142.767 179.094,137.415 176.280 C 131.825 173.341,126.553 169.677,126.253 168.522 C 126.097 167.925,125.203 165.990,124.267 164.223 C 120.461 157.043,123.593 153.241,131.504 155.437 M194.262 160.677 C 185.573 173.094,183.961 174.291,182.587 169.344 C 181.096 163.976,181.302 163.742,190.769 160.063 C 195.230 158.330,195.831 158.435,194.262 160.677 M144.482 160.957 C 145.555 161.505,148.105 163.245,150.148 164.823 C 152.190 166.401,154.305 167.692,154.846 167.692 C 155.388 167.692,156.443 167.925,157.191 168.209 C 158.314 168.637,158.982 168.485,161.023 167.337 L 163.494 165.948 165.593 167.403 C 166.748 168.203,167.692 169.057,167.692 169.301 C 167.692 169.544,168.065 169.744,168.521 169.744 C 169.098 169.744,169.269 169.431,169.082 168.718 C 168.846 167.816,169.066 167.692,170.905 167.692 C 172.154 167.692,173.384 167.341,173.960 166.820 C 174.872 165.995,175.047 166.015,177.185 167.182 C 178.428 167.862,179.620 168.243,179.832 168.031 C 180.045 167.818,180.458 168.628,180.751 169.831 C 181.154 171.490,181.793 172.392,183.400 173.573 C 184.564 174.428,185.899 175.755,186.366 176.520 C 186.834 177.286,187.891 178.311,188.717 178.799 C 189.880 179.486,190.089 179.840,189.649 180.371 C 189.232 180.873,189.234 181.395,189.657 182.323 C 190.390 183.930,190.028 183.920,188.077 182.279 C 185.100 179.774,185.508 181.806,188.621 184.988 C 190.286 186.689,192.303 188.975,193.103 190.067 C 193.903 191.158,195.147 192.721,195.868 193.541 C 197.011 194.839,197.048 194.982,196.154 194.657 C 194.360 194.003,194.099 194.078,194.254 195.201 C 194.362 195.990,193.895 196.614,192.586 197.422 C 190.142 198.933,189.231 200.360,189.231 202.678 C 189.231 204.930,189.287 204.919,184.609 203.622 C 181.031 202.631,180.052 202.924,181.641 204.513 C 182.493 205.365,181.631 205.302,178.911 204.312 C 177.676 203.863,174.705 203.070,172.308 202.550 C 166.038 201.190,163.669 200.227,160.945 197.930 C 158.193 195.610,157.201 195.340,157.711 197.051 C 158.382 199.299,159.603 200.621,161.966 201.662 C 163.282 202.241,165.303 203.662,166.457 204.819 C 167.610 205.976,169.731 207.910,171.169 209.116 C 173.770 211.299,175.897 215.305,175.897 218.023 C 175.897 218.755,176.136 218.993,176.667 218.789 C 177.669 218.404,177.720 220.427,176.729 221.226 C 176.340 221.539,175.280 224.679,174.372 228.205 C 173.465 231.731,172.168 236.495,171.489 238.792 C 170.235 243.040,169.763 250.256,170.739 250.256 C 171.502 250.256,171.592 249.981,174.365 239.206 C 175.812 233.586,177.064 228.919,177.149 228.834 C 177.233 228.750,177.656 229.670,178.090 230.879 C 178.523 232.088,179.265 234.115,179.738 235.385 C 183.225 244.731,180.296 267.863,175.747 266.905 C 165.584 264.765,151.163 257.927,143.406 251.570 C 139.333 248.233,138.038 238.577,138.945 218.325 C 139.640 202.804,141.631 195.998,147.923 187.635 C 150.789 183.825,151.198 182.890,150.256 182.308 C 149.974 182.133,149.744 181.197,149.744 180.226 C 149.744 179.256,149.974 178.462,150.256 178.462 C 151.298 178.462,150.791 175.517,149.615 174.743 C 148.870 174.253,148.244 173.055,147.847 171.356 C 146.941 167.482,145.890 165.578,142.737 162.094 C 139.742 158.785,139.953 158.647,144.482 160.957 M260.604 161.222 C 265.348 163.173,272.364 169.981,270.329 170.659 C 266.617 171.897,265.592 176.194,267.951 180.626 C 269.233 183.033,269.233 183.040,268.181 183.603 C 266.085 184.725,264.903 184.057,264.526 181.538 C 263.560 175.084,261.791 169.946,259.276 166.289 C 257.607 163.863,255.897 160.823,255.897 160.282 C 255.897 159.689,257.803 160.070,260.604 161.222 M194.313 164.487 C 192.501 167.504,189.939 170.948,188.681 172.060 C 187.106 173.451,187.751 172.396,191.772 167.004 C 195.327 162.236,196.162 161.410,194.313 164.487 M92.179 165.360 C 85.330 167.146,83.844 176.692,90.014 179.270 C 92.563 180.335,92.821 180.214,92.821 177.949 C 92.821 176.572,92.594 175.897,92.131 175.897 C 88.319 175.897,89.223 170.618,93.191 169.713 C 98.674 168.462,102.640 173.503,97.661 175.396 C 95.695 176.144,96.129 180.104,98.121 179.600 C 101.261 178.804,103.077 176.280,103.077 172.710 C 103.077 167.124,98.152 163.803,92.179 165.360 M298.462 167.291 C 298.462 169.272,299.820 169.744,305.533 169.744 L 307.846 169.744 303.026 172.768 L 298.205 175.793 298.049 178.153 L 297.893 180.513 302.664 180.516 C 305.289 180.518,308.994 180.667,310.897 180.847 L 314.359 181.174 314.359 179.372 C 314.359 177.310,313.333 176.947,307.436 176.921 L 304.359 176.907 309.615 173.535 C 314.810 170.202,314.872 170.139,314.872 168.158 L 314.872 166.154 310.590 166.154 C 308.235 166.154,304.543 166.005,302.385 165.822 L 298.462 165.491 298.462 167.291 M273.507 174.487 C 276.865 178.959,281.600 192.062,278.872 189.333 C 277.854 188.316,276.923 188.634,276.923 190.000 C 276.923 191.026,277.179 191.282,278.205 191.282 C 280.006 191.282,279.733 198.944,277.682 206.005 C 275.228 214.455,247.206 230.778,228.590 234.602 C 226.311 235.070,226.789 236.365,229.124 236.052 C 231.443 235.741,231.989 236.267,232.694 239.487 C 232.972 240.756,233.287 242.141,233.395 242.564 C 233.959 244.790,225.982 241.326,223.946 238.461 C 222.508 236.437,216.012 235.730,212.221 237.185 C 211.328 237.528,214.781 230.273,216.174 228.881 C 217.484 227.571,218.638 228.459,218.303 230.522 C 218.019 232.274,218.047 232.308,219.792 232.308 C 227.009 232.308,233.583 223.793,229.510 219.720 C 226.582 216.792,222.293 218.546,217.875 224.479 C 216.776 225.956,215.184 227.522,214.338 227.959 C 213.492 228.397,212.113 229.704,211.272 230.865 C 210.431 232.025,209.744 232.732,209.744 232.435 C 209.744 231.827,206.655 230.610,206.218 231.047 C 206.063 231.202,206.230 231.799,206.589 232.374 C 209.177 236.518,198.202 241.004,190.854 238.807 L 188.630 238.142 190.668 237.469 C 192.469 236.875,192.886 236.904,194.268 237.720 C 196.181 238.850,197.436 238.118,197.436 235.871 C 197.436 233.935,196.386 233.010,193.735 232.613 C 192.518 232.430,190.934 231.883,190.215 231.397 L 188.907 230.513 190.562 229.091 C 192.020 227.839,192.185 227.794,191.946 228.710 C 191.577 230.118,192.651 231.282,194.319 231.282 C 197.694 231.282,197.950 227.213,194.615 226.583 C 191.358 225.968,211.988 215.149,220.256 213.137 C 222.231 212.656,224.265 212.138,224.776 211.984 C 225.602 211.736,225.631 211.824,225.036 212.777 C 223.831 214.707,226.225 216.815,227.973 215.364 C 228.997 214.514,228.912 213.994,227.522 212.603 L 226.325 211.407 229.188 210.766 C 230.763 210.414,232.340 210.015,232.692 209.880 C 233.045 209.745,233.333 209.997,233.333 210.440 C 233.333 210.883,233.771 211.480,234.305 211.766 C 235.469 212.389,236.596 211.342,236.317 209.896 C 236.031 208.412,240.654 207.010,241.047 208.462 C 241.403 209.779,243.476 210.125,243.929 208.942 C 244.114 208.462,244.028 207.690,243.739 207.227 C 243.306 206.534,243.556 206.239,245.162 205.553 C 246.855 204.830,247.148 204.820,247.399 205.473 C 247.942 206.887,249.998 206.069,250.021 204.430 C 250.049 202.490,252.541 200.926,252.973 202.577 C 253.327 203.933,255.897 204.012,255.897 202.667 C 255.897 202.159,255.647 201.493,255.341 201.188 C 254.942 200.788,255.122 200.394,255.982 199.788 C 257.152 198.964,257.183 198.979,257.337 200.454 C 257.535 202.356,261.026 203.433,261.026 201.593 C 261.026 201.379,261.718 201.305,262.564 201.429 C 263.834 201.615,264.103 201.477,264.103 200.634 C 264.103 198.945,262.731 198.152,261.592 199.182 C 260.708 199.983,260.616 199.984,260.314 199.195 C 260.104 198.650,259.622 198.441,258.968 198.612 C 257.405 199.021,257.736 198.668,260.218 197.281 C 261.513 196.557,262.379 196.296,262.235 196.672 C 261.879 197.598,262.906 198.103,264.388 197.731 C 265.795 197.378,266.019 196.337,264.890 195.399 C 264.247 194.866,264.363 194.587,265.683 193.476 C 267.143 192.247,267.263 192.226,267.898 193.095 C 268.305 193.651,268.902 193.885,269.413 193.689 C 270.488 193.277,270.556 190.769,269.492 190.769 C 268.857 190.769,268.879 190.592,269.620 189.721 C 270.355 188.859,270.542 188.813,270.679 189.465 C 270.865 190.356,273.091 190.551,273.604 189.721 C 274.091 188.933,272.774 187.585,271.772 187.847 C 271.021 188.043,270.981 187.881,271.464 186.600 C 271.789 185.739,272.398 185.128,272.933 185.128 C 273.504 185.128,273.846 184.744,273.846 184.103 C 273.846 183.448,273.504 183.077,272.900 183.077 C 270.861 183.077,267.992 178.123,269.877 177.856 C 271.425 177.636,271.456 175.702,269.915 175.483 C 269.304 175.396,268.703 175.627,268.580 175.996 C 268.456 176.365,268.455 176.091,268.578 175.387 C 269.108 172.340,271.559 171.893,273.507 174.487 M161.269 179.000 C 160.650 180.197,160.221 180.489,159.448 180.244 C 158.356 179.897,158.387 181.602,159.558 186.282 C 160.124 188.545,161.831 189.109,161.407 186.893 C 161.222 185.923,161.340 185.656,161.860 185.868 C 162.247 186.025,162.910 186.294,163.333 186.465 C 164.280 186.848,164.363 185.633,163.462 184.597 C 163.109 184.193,163.439 184.402,164.195 185.063 C 165.817 186.482,172.775 187.557,173.452 186.493 C 173.693 186.114,173.833 186.245,173.838 186.855 C 173.844 187.568,174.116 187.741,174.903 187.536 C 175.550 187.366,176.069 187.542,176.240 187.989 C 176.608 188.948,177.949 188.931,177.949 187.966 C 177.949 187.365,176.646 184.042,176.053 183.132 C 175.981 183.021,175.571 183.223,175.141 183.579 C 174.462 184.143,174.401 184.022,174.673 182.660 C 174.955 181.253,174.875 181.121,173.904 181.375 C 173.308 181.531,172.821 181.888,172.821 182.168 C 172.821 182.448,172.388 182.144,171.860 181.492 C 170.542 179.864,165.906 178.791,164.076 179.690 C 162.816 180.309,162.776 180.280,162.981 178.884 C 163.263 176.959,162.290 177.025,161.269 179.000 M273.162 178.803 C 272.974 178.991,272.821 179.684,272.821 180.342 C 272.821 181.728,274.704 182.061,275.202 180.763 C 275.683 179.508,274.038 177.928,273.162 178.803 M92.131 182.259 C 83.445 185.475,85.928 197.992,95.240 197.937 C 100.161 197.909,103.584 194.633,103.588 189.948 C 103.592 184.015,97.831 180.149,92.131 182.259 M301.282 184.544 C 294.067 189.000,297.130 199.479,305.649 199.485 C 314.384 199.491,317.465 189.646,310.262 184.744 C 308.065 183.249,303.542 183.148,301.282 184.544 M99.595 187.698 C 101.792 190.412,100.039 192.862,95.639 193.227 C 90.999 193.611,88.250 190.143,91.154 187.568 C 93.158 185.791,98.113 185.867,99.595 187.698 M274.701 186.496 C 274.513 186.684,274.359 187.261,274.359 187.778 C 274.359 188.817,276.603 189.138,277.193 188.183 C 277.876 187.079,275.635 185.562,274.701 186.496 M309.744 189.231 C 312.856 192.343,310.081 195.221,304.231 194.949 C 298.274 194.673,299.626 188.205,305.641 188.205 C 308.034 188.205,308.946 188.433,309.744 189.231 M179.770 189.702 C 179.581 190.007,179.613 190.545,179.842 190.897 C 180.070 191.250,180.256 192.000,180.256 192.564 C 180.256 193.149,180.551 193.528,180.942 193.447 C 181.318 193.368,181.749 193.772,181.899 194.344 C 182.048 194.916,182.590 195.385,183.102 195.385 C 183.614 195.385,184.180 195.846,184.359 196.410 C 185.385 199.643,185.979 196.663,185.022 193.084 C 184.471 191.025,183.077 189.802,183.077 191.378 C 183.077 191.713,182.410 191.348,181.595 190.567 C 180.660 189.671,179.986 189.351,179.770 189.702 M264.814 191.866 C 258.922 196.624,239.680 207.031,238.661 206.011 C 238.298 205.649,240.531 200.267,241.406 199.394 C 241.912 198.890,245.428 197.696,249.416 196.674 C 256.397 194.887,263.002 192.481,264.924 191.026 C 266.856 189.564,266.760 190.295,264.814 191.866 M272.494 192.050 C 272.317 192.512,272.408 193.126,272.698 193.416 C 273.534 194.252,275.128 193.688,275.128 192.557 C 275.128 191.253,272.960 190.835,272.494 192.050 M269.078 195.709 C 268.198 196.588,268.728 198.019,269.872 197.856 C 270.626 197.749,271.026 197.340,271.026 196.674 C 271.026 195.656,269.758 195.028,269.078 195.709 M285.905 201.091 C 289.797 206.378,289.575 207.606,284.534 208.688 C 280.493 209.554,278.279 209.420,278.698 208.333 C 279.405 206.498,280.498 201.227,280.505 199.615 C 280.519 196.546,283.073 197.244,285.905 201.091 M96.410 200.543 C 93.449 201.064,90.276 201.627,89.359 201.794 C 87.859 202.067,87.692 202.275,87.692 203.869 C 87.692 205.902,87.515 205.869,93.077 204.864 C 95.333 204.456,97.386 204.118,97.639 204.113 C 97.892 204.107,96.081 205.991,93.613 208.300 C 89.186 212.442,88.211 214.536,89.915 216.240 C 90.099 216.424,92.706 216.038,104.384 214.098 C 105.844 213.856,106.578 210.256,105.166 210.256 C 104.967 210.256,103.434 210.490,101.761 210.775 C 100.087 211.060,98.124 211.392,97.398 211.513 C 96.313 211.694,96.790 211.041,100.091 207.829 C 104.121 203.907,104.713 202.701,103.791 200.298 C 103.420 199.331,103.283 199.335,96.410 200.543 M267.491 201.837 C 266.936 203.281,267.152 203.590,268.718 203.590 C 270.331 203.590,270.736 202.736,269.641 201.641 C 268.788 200.788,267.861 200.872,267.491 201.837 M227.692 203.614 C 227.692 203.984,231.434 205.930,234.103 206.947 L 235.128 207.338 234.103 207.549 C 233.538 207.664,229.648 208.681,225.457 209.807 C 221.266 210.933,217.776 211.783,217.700 211.696 C 217.237 211.164,219.173 206.519,219.942 206.318 C 220.439 206.188,221.127 205.305,221.470 204.356 C 221.813 203.407,222.488 202.548,222.970 202.446 C 224.121 202.202,227.692 203.085,227.692 203.614 M296.923 203.972 C 296.923 206.449,296.887 206.438,306.795 206.968 L 313.333 207.318 313.333 205.271 L 313.333 203.224 309.872 202.912 C 307.968 202.741,304.276 202.444,301.667 202.252 L 296.923 201.904 296.923 203.972 M258.039 204.959 C 258.160 206.013,258.486 206.410,259.231 206.410 C 260.809 206.410,260.657 203.903,259.065 203.677 C 258.028 203.530,257.894 203.698,258.039 204.959 M262.393 204.957 C 262.205 205.145,262.051 205.722,262.051 206.239 C 262.051 207.279,264.295 207.599,264.886 206.644 C 265.568 205.540,263.327 204.023,262.393 204.957 M253.003 205.904 C 252.617 206.910,253.704 208.205,254.935 208.205 C 255.663 208.205,255.897 207.830,255.897 206.667 C 255.897 204.955,253.600 204.350,253.003 205.904 M198.144 208.437 C 197.380 210.427,188.995 211.201,185.641 209.590 C 184.654 209.116,184.423 208.896,185.128 209.101 C 187.032 209.654,196.272 208.704,198.317 207.745 C 198.379 207.716,198.301 208.027,198.144 208.437 M245.980 209.229 C 245.082 210.750,245.085 210.772,246.317 211.333 C 248.660 212.400,250.856 210.036,249.128 208.308 C 248.095 207.275,246.934 207.615,245.980 209.229 M256.239 209.573 C 256.051 209.761,255.897 210.469,255.897 211.147 C 255.897 212.676,258.085 212.624,258.379 211.087 C 258.618 209.831,257.074 208.738,256.239 209.573 M297.039 210.810 C 292.722 215.225,294.081 223.077,299.163 223.077 C 301.306 223.077,302.685 221.773,304.645 217.891 C 306.384 214.445,307.839 213.930,308.088 216.671 C 308.250 218.449,306.539 221.538,305.392 221.538 C 304.828 221.538,304.615 222.099,304.615 223.590 C 304.615 228.285,309.959 224.429,311.212 218.831 C 313.125 210.282,305.571 206.851,301.727 214.523 C 299.427 219.112,297.949 220.031,297.949 216.870 C 297.949 215.920,298.436 214.851,299.231 214.056 C 300.856 212.431,301.067 209.231,299.548 209.231 C 299.017 209.231,297.888 209.941,297.039 210.810 M240.103 210.359 C 238.992 211.470,239.366 212.821,240.785 212.821 C 242.296 212.821,242.958 211.605,242.046 210.506 C 241.279 209.583,240.907 209.555,240.103 210.359 M177.807 216.538 C 177.693 217.455,177.600 216.705,177.600 214.872 C 177.600 213.038,177.693 212.288,177.807 213.205 C 177.921 214.122,177.921 215.622,177.807 216.538 M136.356 218.316 C 135.387 225.220,135.481 239.923,136.517 243.506 L 137.309 246.243 135.026 244.019 C 133.771 242.796,131.132 239.685,129.161 237.107 L 125.578 232.419 126.921 228.389 C 128.872 222.536,135.694 211.933,136.798 213.037 C 136.942 213.181,136.743 215.557,136.356 218.316 M235.897 214.048 C 235.897 215.546,237.341 216.212,238.366 215.187 C 239.408 214.145,238.752 212.821,237.196 212.821 C 236.168 212.821,235.897 213.077,235.897 214.048 M230.872 213.949 C 229.780 215.041,230.134 216.410,231.508 216.410 C 233.005 216.410,233.515 215.741,233.075 214.354 C 232.710 213.203,231.788 213.033,230.872 213.949 M219.971 214.927 C 219.210 216.348,220.017 217.159,221.757 216.722 C 223.173 216.367,223.456 215.456,222.462 214.462 C 221.543 213.543,220.619 213.715,219.971 214.927 M246.465 214.657 C 245.927 216.059,246.116 216.410,247.406 216.410 C 248.944 216.410,249.527 215.591,248.699 214.593 C 247.886 213.613,246.854 213.643,246.465 214.657 M239.145 216.194 C 238.773 217.162,240.178 218.729,240.976 218.236 C 241.286 218.044,241.538 217.325,241.538 216.636 C 241.538 215.182,239.666 214.835,239.145 216.194 M213.180 216.734 C 212.301 217.614,212.830 219.044,213.974 218.882 C 214.729 218.775,215.128 218.365,215.128 217.699 C 215.128 216.682,213.860 216.054,213.180 216.734 M100.898 217.824 C 98.978 219.015,98.394 221.116,98.938 224.872 C 99.502 228.764,98.566 230.321,96.890 228.277 C 95.803 226.951,95.543 223.637,96.454 222.726 C 96.854 222.326,96.778 221.720,96.184 220.572 C 93.665 215.699,90.936 223.339,93.320 228.592 C 96.834 236.333,104.097 234.557,103.363 226.136 C 102.988 221.841,103.178 220.900,104.328 221.341 C 105.607 221.832,106.388 224.502,105.653 225.875 C 104.477 228.072,107.232 230.765,108.765 228.918 C 112.527 224.384,105.744 214.820,100.898 217.824 M215.175 219.412 C 214.732 220.128,215.331 221.408,216.281 221.773 C 217.195 222.123,218.017 221.173,217.815 220.000 C 217.662 219.119,215.635 218.667,215.175 219.412 M228.425 220.806 C 231.188 223.569,225.263 230.769,220.228 230.769 C 220.155 230.769,220.211 230.329,220.352 229.791 C 220.504 229.208,220.167 228.372,219.516 227.721 C 218.309 226.514,218.360 226.348,220.917 223.163 C 223.424 220.042,226.649 219.030,228.425 220.806 M292.375 225.919 C 288.165 229.462,287.372 235.042,290.756 237.317 C 293.250 238.993,294.572 238.522,298.205 234.663 C 299.897 232.866,301.571 231.505,301.923 231.638 C 303.641 232.288,301.286 237.538,299.137 237.849 C 297.267 238.120,296.725 242.051,298.558 242.051 C 303.284 242.051,307.994 232.716,305.111 229.064 C 302.571 225.846,299.381 226.390,296.178 230.588 C 293.958 233.497,293.132 234.070,292.409 233.199 C 291.566 232.183,293.022 229.329,294.583 228.937 C 295.321 228.751,295.901 228.238,295.904 227.765 C 295.908 227.302,296.051 226.404,296.221 225.769 C 296.663 224.119,294.410 224.207,292.375 225.919 M104.376 234.082 C 100.719 236.151,97.656 238.058,97.569 238.318 C 97.394 238.843,102.492 248.279,103.220 248.776 C 104.479 249.636,106.711 247.504,105.724 246.385 C 105.488 246.117,104.590 244.618,103.728 243.055 L 102.162 240.212 103.648 239.359 L 105.134 238.506 106.475 241.176 C 108.141 244.494,107.914 244.287,109.463 243.898 C 111.113 243.484,111.117 242.426,109.482 239.565 C 108.139 237.216,108.173 236.738,109.745 235.897 C 110.595 235.442,110.952 235.808,112.624 238.843 C 113.674 240.748,114.608 242.403,114.700 242.519 C 114.970 242.860,117.436 241.603,117.436 241.124 C 117.436 240.431,111.729 230.253,111.359 230.287 C 111.176 230.304,108.033 232.012,104.376 234.082 M211.422 234.231 C 210.439 236.407,209.283 237.949,208.633 237.949 C 208.392 237.949,209.037 236.679,210.067 235.128 C 212.265 231.818,212.618 231.585,211.422 234.231 M195.561 234.871 C 197.224 236.426,195.460 236.875,193.590 235.373 L 191.538 233.726 193.333 234.097 C 194.321 234.300,195.323 234.649,195.561 234.871 M207.141 236.795 C 206.457 237.571,205.897 238.234,205.897 238.270 C 205.897 238.305,205.321 238.496,204.615 238.694 C 203.452 239.021,203.476 238.963,204.872 238.072 C 205.718 237.531,206.727 236.706,207.114 236.237 C 207.501 235.768,207.945 235.385,208.101 235.385 C 208.257 235.385,207.824 236.019,207.141 236.795 M283.918 239.503 C 283.401 240.380,283.057 241.147,283.155 241.207 C 283.253 241.268,286.141 243.214,289.572 245.531 C 296.464 250.185,296.604 250.236,297.978 248.590 C 299.449 246.826,299.336 246.693,292.658 242.308 C 285.316 237.486,285.142 237.431,283.918 239.503 M112.564 247.981 C 106.263 253.434,106.117 253.664,107.900 255.339 L 109.168 256.530 111.517 254.605 C 115.396 251.427,116.945 253.500,114.620 258.756 L 113.343 261.644 114.492 263.101 C 116.125 265.173,116.499 264.995,118.028 261.420 C 119.388 258.240,119.392 258.237,121.381 258.380 C 127.644 258.833,128.120 253.538,122.415 246.868 C 118.476 242.264,119.274 242.174,112.564 247.981 M279.615 245.486 C 277.550 247.692,277.533 247.402,279.996 252.299 L 282.043 256.370 279.739 255.365 C 278.472 254.811,276.425 253.917,275.189 253.378 L 272.942 252.396 271.086 254.297 C 270.066 255.342,269.231 256.460,269.231 256.781 C 269.231 257.379,279.584 267.291,280.549 267.617 C 281.800 268.039,283.847 264.990,282.622 264.530 C 282.372 264.436,280.540 262.819,278.552 260.938 L 274.938 257.517 280.316 260.028 C 284.896 262.166,285.843 262.447,286.693 261.916 C 288.006 261.096,288.064 261.349,285.191 255.362 L 282.689 250.150 286.357 253.793 C 290.437 257.846,290.639 257.931,292.218 256.249 C 293.706 254.665,294.019 255.181,287.926 249.176 C 281.730 243.070,281.835 243.116,279.615 245.486 M121.161 250.630 C 123.912 254.428,121.003 256.108,117.996 252.459 L 116.429 250.559 117.544 249.372 C 118.936 247.890,119.257 248.002,121.161 250.630 M126.692 261.458 C 123.790 270.691,123.776 270.797,125.309 272.237 C 126.859 273.693,126.057 274.008,134.258 268.718 C 141.417 264.099,141.665 263.821,139.814 262.477 C 138.669 261.646,138.497 261.709,133.933 264.641 C 131.347 266.302,129.231 267.596,129.231 267.517 C 129.231 267.437,129.923 265.324,130.769 262.821 C 132.613 257.367,132.627 257.098,131.154 255.868 C 129.177 254.219,128.831 254.652,126.692 261.458 M264.231 259.816 C 261.759 261.306,261.746 261.384,263.024 266.775 C 263.876 270.368,263.884 270.672,263.117 270.108 C 262.652 269.767,260.953 268.479,259.341 267.246 C 256.157 264.811,255.410 264.799,252.354 267.133 L 251.117 268.077 255.344 274.808 C 259.684 281.718,259.880 281.913,261.572 281.008 C 263.085 280.198,262.715 279.250,257.983 271.814 C 257.486 271.033,258.841 271.863,261.538 273.989 C 268.000 279.085,268.932 278.650,267.504 271.205 C 267.026 268.709,266.502 266.263,266.339 265.769 C 266.032 264.835,269.224 269.819,270.745 272.647 C 271.616 274.266,271.620 274.267,273.294 273.456 C 275.802 272.242,275.735 271.858,272.008 266.090 C 270.117 263.163,268.252 260.250,267.863 259.615 C 266.991 258.193,266.916 258.197,264.231 259.816 M138.118 270.663 C 131.281 276.677,131.065 277.009,133.372 277.965 C 134.821 278.565,135.055 278.511,136.267 277.300 L 137.585 275.982 140.331 277.328 C 143.011 278.643,143.077 278.728,143.077 280.863 C 143.077 282.960,144.601 284.615,146.531 284.615 C 146.929 284.615,149.002 267.208,148.630 266.991 C 148.187 266.733,144.567 265.131,144.470 265.150 C 144.409 265.162,141.550 267.643,138.118 270.663 M151.783 270.544 C 151.156 272.194,151.384 272.483,153.972 273.310 C 155.703 273.863,155.836 274.029,155.321 274.991 C 155.007 275.578,153.980 278.345,153.038 281.141 L 151.326 286.225 153.082 286.958 C 155.581 288.002,155.527 288.041,156.873 284.231 C 157.546 282.327,158.536 279.572,159.073 278.109 L 160.050 275.448 162.156 276.191 C 163.315 276.600,164.311 276.874,164.370 276.800 C 166.428 274.227,166.149 273.941,159.231 271.537 C 156.128 270.459,153.304 269.475,152.956 269.352 C 152.607 269.228,152.079 269.764,151.783 270.544 M143.831 272.996 L 143.483 275.317 141.815 274.522 L 140.146 273.726 141.994 272.032 C 144.210 270.002,144.275 270.036,143.831 272.996 M242.970 270.740 C 237.656 272.430,235.487 277.735,237.993 282.911 C 241.794 290.764,253.079 288.241,253.076 279.539 C 253.073 273.361,248.165 269.088,242.970 270.740 M246.531 274.629 C 248.136 275.753,249.589 280.601,248.824 282.279 C 246.991 286.303,241.086 282.710,241.037 277.541 C 241.011 274.865,244.345 273.098,246.531 274.629 M165.496 282.076 C 163.337 290.790,163.306 290.251,165.983 290.597 L 167.949 290.851 169.823 283.246 C 171.836 275.080,171.828 274.979,169.184 274.550 L 167.432 274.266 165.496 282.076 M225.881 275.929 C 217.639 278.327,219.748 292.312,228.351 292.306 C 232.556 292.303,235.337 290.153,236.144 286.282 C 236.492 284.616,236.491 284.615,234.387 284.615 C 232.462 284.615,232.256 284.746,231.977 286.142 C 230.936 291.344,225.812 288.989,225.241 283.046 C 224.867 279.154,228.440 277.303,230.601 280.269 C 231.708 281.788,234.872 281.626,234.872 280.050 C 234.872 276.848,230.156 274.686,225.881 275.929 M177.079 277.926 C 170.791 281.760,171.865 291.264,178.822 293.348 C 188.337 296.199,193.853 282.236,185.025 277.644 C 183.008 276.594,179.033 276.735,177.079 277.926 M192.821 286.667 L 192.821 294.872 194.597 294.872 L 196.373 294.872 196.520 289.942 L 196.667 285.013 200.000 289.927 C 203.173 294.604,203.423 294.842,205.189 294.856 C 207.479 294.875,207.678 294.070,207.687 284.744 L 207.692 278.462 205.897 278.462 C 204.134 278.462,204.102 278.499,204.065 280.641 C 204.044 281.840,203.871 283.855,203.680 285.119 L 203.333 287.418 200.292 282.940 C 197.257 278.471,197.246 278.462,195.036 278.462 L 192.821 278.462 192.821 286.667 M183.661 280.980 C 185.938 282.824,184.860 289.405,182.171 290.080 C 178.926 290.895,176.913 288.331,177.662 284.338 C 178.349 280.677,181.269 279.043,183.661 280.980 " stroke="none" fill="#000000" fill-rule="evenodd"></path></g></svg>